# xmcd
#
# Track frame offsets: 
#        150
#        12412
#        27047
#        38520
#        50237
#        63522
#        74705
#        88612
#        101897
#        113875
#        126102
#        137867
#        149712
#        162205
#        173777
#        186365
#        198680
#        211592
#        224160
#        237067
#        249190
#        264082
#
# Disc length: 3696 seconds
#
# Revision: 0
# Processed by: cddbd v1.4PL0 Copyright (c) Steve Scherf et al.
# Submitted via: ExactAudioCopy v0.90b3
#
DISCID=4e0e6e16
DTITLE=Memphis Minnie - In My Girlish Days
DYEAR=1994
DGENRE=
TTITLE0=Down Home Girl
TTITLE1=Night Watchman Blues
TTITLE2=Kid Man Blues
TTITLE3=Broken Heart
TTITLE4=Lake Michigan
TTITLE5=Kissing In The Dark
TTITLE6=World Of Trouble
TTITLE7=Conjur Man
TTITLE8=Moaning Blues
TTITLE9=I'm So Glad
TTITLE10=I'm Not A Bad Girl
TTITLE11=Looking The World Over
TTITLE12=Me And My Chaffeur Blues
TTITLE13=In My Girlish Days
TTITLE14=Boy Friend Blues
TTITLE15=Nothing In Rambling
TTITLE16=My Baby Don't Want Me No More
TTITLE17=Moonshine
TTITLE18=Joe Louis Strut
TTITLE19=I'm Talking About You
TTITLE20=Bumble Bee
TTITLE21=Frisco
EXTD=
EXTT0=
EXTT1=
EXTT2=
EXTT3=
EXTT4=
EXTT5=
EXTT6=
EXTT7=
EXTT8=
EXTT9=
EXTT10=
EXTT11=
EXTT12=
EXTT13=
EXTT14=
EXTT15=
EXTT16=
EXTT17=
EXTT18=
EXTT19=
EXTT20=
EXTT21=
PLAYORDER=
